<?xml version="1.0" standalone="no"?>
<!DOCTYPE svg PUBLIC "-//W3C//DTD SVG 20010904//EN"
 "http://www.w3.org/TR/2001/REC-SVG-20010904/DTD/svg10.dtd">
<svg version="1.0" xmlns="http://www.w3.org/2000/svg"
 width="512.000000pt" height="512.000000pt" viewBox="0 0 512.000000 512.000000"
 preserveAspectRatio="xMidYMid meet">

<g transform="translate(0.000000,512.000000) scale(0.100000,-0.100000)"
fill="#000000" stroke="none">
<path d="M2365 4865 c-518 -96 -924 -486 -1021 -982 -22 -108 -24 -318 -5
-423 91 -514 502 -912 1035 -1005 115 -20 317 -19 437 1 756 129 1224 874 989
1576 -116 345 -386 628 -725 759 -165 64 -253 81 -450 85 -130 2 -202 -1 -260
-11z"/>
<path d="M1470 2564 c-205 -69 -394 -189 -543 -343 -188 -196 -304 -423 -367
-716 -19 -86 -23 -143 -27 -396 -6 -359 -4 -370 91 -465 187 -186 622 -314
1296 -381 222 -22 1006 -25 1225 -5 705 65 1152 192 1346 382 101 99 102 106
96 469 -4 253 -8 310 -26 395 -49 221 -132 417 -246 575 -60 84 -199 226 -278
286 -56 43 -182 118 -235 141 -93 40 -157 64 -175 64 -11 0 -40 -17 -66 -39
-165 -137 -421 -259 -646 -305 -463 -96 -965 27 -1312 320 -28 24 -53 44 -55
44 -1 0 -37 -12 -78 -26z"/>
</g>
</svg>
